#Comment line ignore any data following # character 
#Hierarchical Translation and Rotation (.htr) file 
[Header]	
#Header keywords are followed by a single value 
FileType HTR		#Single word string
DataType HTRS		#Translation followed by rotation and scale data
FileVersion 1		#integer
NumSegments 84		#integer
NumFrames 2		#integer
DataFrameRate 30		#integer, data frame rate in this file
EulerRotationOrder ZYX
CalibrationUnits mm
RotationUnits Degrees
GlobalAxisofGravity Y
BoneLengthAxis Y
ScaleFactor 1.00
[SegmentNames&Hierarchy]
#CHILD	PARENT
MASTER GLOBAL
root MASTER
chest root
L_mid_tent01 root
R_mid_tent01 root
spine01 root
Bip01_Neck chest
L_humerus chest
R_humerus chest
weapon_bone chest
Bip01_Head Bip01_Neck
eye_left_bone Bip01_Head
eye_right_bone Bip01_Head
L_forearm L_humerus
L_front_hand L_forearm
L_weapon_bone L_forearm
L_front_hand01_01 L_front_hand
L_front_hand02_01 L_front_hand
L_front_hand03_01 L_front_hand
L_front_hand01_02 L_front_hand01_01
L_front_hand02_02 L_front_hand02_01
L_front_hand03_02 L_front_hand03_01
R_forearm R_humerus
R_front_hand R_forearm
R_weapon_bone R_forearm
R_front_hand01_01 R_front_hand
R_front_hand02_01 R_front_hand
R_front_hand03_01 R_front_hand
R_front_hand01_02 R_front_hand01_01
R_front_hand02_02 R_front_hand02_01
R_front_hand03_02 R_front_hand03_01
null_rope01_connect L_mid_tent01
Rope1_Seg01 null_rope01_connect
Rope1_Seg02 Rope1_Seg01
Rope1_Seg03 Rope1_Seg02
Rope1_Seg04 Rope1_Seg03
Rope1_Seg05 Rope1_Seg04
Rope1_Seg06 Rope1_Seg05
Rope1_Seg07 Rope1_Seg06
Rope1_Seg09 Rope1_Seg07
L_mid_hand01 Rope1_Seg09
L_mid_hand02 Rope1_Seg09
L_mid_hand03 Rope1_Seg09
null_rope02_connect R_mid_tent01
Rope2_Seg01 null_rope02_connect
Rope2_Seg02 Rope2_Seg01
Rope2_Seg03 Rope2_Seg02
Rope2_Seg04 Rope2_Seg03
Rope2_Seg05 Rope2_Seg04
Rope2_Seg06 Rope2_Seg05
Rope2_Seg07 Rope2_Seg06
Rope2_Seg09 Rope2_Seg07
R_mid_hand01 Rope2_Seg09
R_mid_hand02 Rope2_Seg09
R_mid_hand03 Rope2_Seg09
spine02 spine01
spine03 spine02
pelvis spine03
null_rope03_connect pelvis
null_rope04_connect pelvis
Rope3_Seg01 null_rope03_connect
Rope3_Seg02 Rope3_Seg01
Rope3_Seg03 Rope3_Seg02
Rope3_Seg04 Rope3_Seg03
Rope3_Seg05 Rope3_Seg04
Rope3_Seg06 Rope3_Seg05
Rope3_Seg07 Rope3_Seg06
Rope3_Seg08 Rope3_Seg07
Rope3_Seg09 Rope3_Seg08
R_rear_hand01 Rope3_Seg09
R_rear_hand02 Rope3_Seg09
R_rear_hand03 Rope3_Seg09
Rope4_Seg01 null_rope04_connect
Rope4_Seg02 Rope4_Seg01
Rope4_Seg03 Rope4_Seg02
Rope4_Seg04 Rope4_Seg03
Rope4_Seg05 Rope4_Seg04
Rope4_Seg06 Rope4_Seg05
Rope4_Seg07 Rope4_Seg06
Rope4_Seg08 Rope4_Seg07
Rope4_Seg09 Rope4_Seg08
L_rear_hand01 Rope4_Seg09
L_rear_hand02 Rope4_Seg09
L_rear_hand03 Rope4_Seg09
[BasePosition]
#SegmentName Tx, Ty, Tz, Rx, Ry, Rz, BoneLength
MASTER 0.000000 0.000000 0.000000 -90.000000 0.000000 0.000000 10.000000 
root 0.000000 0.000000 0.000000 0.000000 0.000000 0.000000 10.000000 
chest 0.000000 0.000000 0.000000 0.000000 0.000000 0.000000 10.000000 
L_mid_tent01 0.000000 0.000000 0.000000 0.000000 0.000000 0.000000 10.000000 
R_mid_tent01 0.000000 0.000000 0.000000 0.000000 0.000000 0.000000 10.000000 
spine01 0.000000 0.000000 0.000000 0.000000 0.000000 0.000000 10.000000 
Bip01_Neck 0.000000 0.000000 0.000000 0.000000 0.000000 0.000000 10.000000 
L_humerus 0.000000 0.000000 0.000000 0.000000 0.000000 0.000000 10.000000 
R_humerus 0.000000 0.000000 0.000000 0.000000 0.000000 0.000000 10.000000 
weapon_bone 0.000000 0.000000 0.000000 0.000000 0.000000 0.000000 10.000000 
Bip01_Head 0.000000 0.000000 0.000000 0.000000 0.000000 0.000000 10.000000 
eye_left_bone 0.000000 0.000000 0.000000 0.000000 0.000000 0.000000 10.000000 
eye_right_bone 0.000000 0.000000 0.000000 0.000000 0.000000 0.000000 10.000000 
L_forearm 0.000000 0.000000 0.000000 0.000000 0.000000 0.000000 10.000000 
L_front_hand 0.000000 0.000000 0.000000 0.000000 0.000000 0.000000 10.000000 
L_weapon_bone 0.000000 0.000000 0.000000 0.000000 0.000000 0.000000 10.000000 
L_front_hand01_01 0.000000 0.000000 0.000000 0.000000 0.000000 0.000000 10.000000 
L_front_hand02_01 0.000000 0.000000 0.000000 0.000000 0.000000 0.000000 10.000000 
L_front_hand03_01 0.000000 0.000000 0.000000 0.000000 0.000000 0.000000 10.000000 
L_front_hand01_02 0.000000 0.000000 0.000000 0.000000 0.000000 0.000000 10.000000 
L_front_hand02_02 0.000000 0.000000 0.000000 0.000000 0.000000 0.000000 10.000000 
L_front_hand03_02 0.000000 0.000000 0.000000 0.000000 0.000000 0.000000 10.000000 
R_forearm 0.000000 0.000000 0.000000 0.000000 0.000000 0.000000 10.000000 
R_front_hand 0.000000 0.000000 0.000000 0.000000 0.000000 0.000000 10.000000 
R_weapon_bone 0.000000 0.000000 0.000000 0.000000 0.000000 0.000000 10.000000 
R_front_hand01_01 0.000000 0.000000 0.000000 0.000000 0.000000 0.000000 10.000000 
R_front_hand02_01 0.000000 0.000000 0.000000 0.000000 0.000000 0.000000 10.000000 
R_front_hand03_01 0.000000 0.000000 0.000000 0.000000 0.000000 0.000000 10.000000 
R_front_hand01_02 0.000000 0.000000 0.000000 0.000000 0.000000 0.000000 10.000000 
R_front_hand02_02 0.000000 0.000000 0.000000 0.000000 0.000000 0.000000 10.000000 
R_front_hand03_02 0.000000 0.000000 0.000000 0.000000 0.000000 0.000000 10.000000 
null_rope01_connect 0.000000 0.000000 0.000000 0.000000 0.000000 0.000000 10.000000 
Rope1_Seg01 0.000000 0.000000 0.000000 0.000000 0.000000 0.000000 10.000000 
Rope1_Seg02 0.000000 0.000000 0.000000 0.000000 0.000000 0.000000 10.000000 
Rope1_Seg03 0.000000 0.000000 0.000000 0.000000 0.000000 0.000000 10.000000 
Rope1_Seg04 0.000000 0.000000 0.000000 0.000000 0.000000 0.000000 10.000000 
Rope1_Seg05 0.000000 0.000000 0.000000 0.000000 0.000000 0.000000 10.000000 
Rope1_Seg06 0.000000 0.000000 0.000000 0.000000 0.000000 0.000000 10.000000 
Rope1_Seg07 0.000000 0.000000 0.000000 0.000000 0.000000 0.000000 10.000000 
Rope1_Seg09 0.000000 0.000000 0.000000 0.000000 0.000000 0.000000 10.000000 
L_mid_hand01 0.000000 0.000000 0.000000 0.000000 0.000000 0.000000 10.000000 
L_mid_hand02 0.000000 0.000000 0.000000 0.000000 0.000000 0.000000 10.000000 
L_mid_hand03 0.000000 0.000000 0.000000 0.000000 0.000000 0.000000 10.000000 
null_rope02_connect 0.000000 0.000000 0.000000 0.000000 0.000000 0.000000 10.000000 
Rope2_Seg01 0.000000 0.000000 0.000000 0.000000 0.000000 0.000000 10.000000 
Rope2_Seg02 0.000000 0.000000 0.000000 0.000000 0.000000 0.000000 10.000000 
Rope2_Seg03 0.000000 0.000000 0.000000 0.000000 0.000000 0.000000 10.000000 
Rope2_Seg04 0.000000 0.000000 0.000000 0.000000 0.000000 0.000000 10.000000 
Rope2_Seg05 0.000000 0.000000 0.000000 0.000000 0.000000 0.000000 10.000000 
Rope2_Seg06 0.000000 0.000000 0.000000 0.000000 0.000000 0.000000 10.000000 
Rope2_Seg07 0.000000 0.000000 0.000000 0.000000 0.000000 0.000000 10.000000 
Rope2_Seg09 0.000000 0.000000 0.000000 0.000000 0.000000 0.000000 10.000000 
R_mid_hand01 0.000000 0.000000 0.000000 0.000000 0.000000 0.000000 10.000000 
R_mid_hand02 0.000000 0.000000 0.000000 0.000000 0.000000 0.000000 10.000000 
R_mid_hand03 0.000000 0.000000 0.000000 0.000000 0.000000 0.000000 10.000000 
spine02 0.000000 0.000000 0.000000 0.000000 0.000000 0.000000 10.000000 
spine03 0.000000 0.000000 0.000000 0.000000 0.000000 0.000000 10.000000 
pelvis 0.000000 0.000000 0.000000 0.000000 0.000000 0.000000 10.000000 
null_rope03_connect 0.000000 0.000000 0.000000 0.000000 0.000000 0.000000 10.000000 
null_rope04_connect 0.000000 0.000000 0.000000 0.000000 0.000000 0.000000 10.000000 
Rope3_Seg01 0.000000 0.000000 0.000000 0.000000 0.000000 0.000000 10.000000 
Rope3_Seg02 0.000000 0.000000 0.000000 0.000000 0.000000 0.000000 10.000000 
Rope3_Seg03 0.000000 0.000000 0.000000 0.000000 0.000000 0.000000 10.000000 
Rope3_Seg04 0.000000 0.000000 0.000000 0.000000 0.000000 0.000000 10.000000 
Rope3_Seg05 0.000000 0.000000 0.000000 0.000000 0.000000 0.000000 10.000000 
Rope3_Seg06 0.000000 0.000000 0.000000 0.000000 0.000000 0.000000 10.000000 
Rope3_Seg07 0.000000 0.000000 0.000000 0.000000 0.000000 0.000000 10.000000 
Rope3_Seg08 0.000000 0.000000 0.000000 0.000000 0.000000 0.000000 10.000000 
Rope3_Seg09 0.000000 0.000000 0.000000 0.000000 0.000000 0.000000 10.000000 
R_rear_hand01 0.000000 0.000000 0.000000 0.000000 0.000000 0.000000 10.000000 
R_rear_hand02 0.000000 0.000000 0.000000 0.000000 0.000000 0.000000 10.000000 
R_rear_hand03 0.000000 0.000000 0.000000 0.000000 0.000000 0.000000 10.000000 
Rope4_Seg01 0.000000 0.000000 0.000000 0.000000 0.000000 0.000000 10.000000 
Rope4_Seg02 0.000000 0.000000 0.000000 0.000000 0.000000 0.000000 10.000000 
Rope4_Seg03 0.000000 0.000000 0.000000 0.000000 0.000000 0.000000 10.000000 
Rope4_Seg04 0.000000 0.000000 0.000000 0.000000 0.000000 0.000000 10.000000 
Rope4_Seg05 0.000000 0.000000 0.000000 0.000000 0.000000 0.000000 10.000000 
Rope4_Seg06 0.000000 0.000000 0.000000 0.000000 0.000000 0.000000 10.000000 
Rope4_Seg07 0.000000 0.000000 0.000000 0.000000 0.000000 0.000000 10.000000 
Rope4_Seg08 0.000000 0.000000 0.000000 0.000000 0.000000 0.000000 10.000000 
Rope4_Seg09 0.000000 0.000000 0.000000 0.000000 0.000000 0.000000 10.000000 
L_rear_hand01 0.000000 0.000000 0.000000 0.000000 0.000000 0.000000 10.000000 
L_rear_hand02 0.000000 0.000000 0.000000 0.000000 0.000000 0.000000 10.000000 
L_rear_hand03 0.000000 0.000000 0.000000 0.000000 0.000000 0.000000 10.000000 
#Beginning of Data. Separated by tabs
#Fr	Tx	Ty	Tz	Rx	Ry	Rz	SF
[MASTER]
70 2476.202881 2790.114502 1805.324219 0.001660 0.001660 0.001660 4144.335449
71 2485.056885 2790.114502 1801.115601 0.001660 0.001660 0.001660 4147.802246
[root]
70 65.818932 -51.398621 285.887787 -9.716347 2.938344 -112.459740 297.835144
71 61.981194 -51.398621 285.401337 -9.678566 2.926860 -112.382355 296.542419
[chest]
70 -84.512650 -34.090519 0.000000 25.830402 10.336445 161.589142 91.129311
71 -84.512650 -34.090519 0.000000 26.050804 10.305396 161.787399 91.129311
[L_mid_tent01]
70 27.298954 22.179213 -249.918701 0.100150 20.155140 79.701653 252.381668
71 27.298952 22.179213 -249.918701 -0.242053 20.114887 78.878410 252.381668
[R_mid_tent01]
70 23.228794 24.509907 226.238495 169.432739 -21.469812 68.447426 228.744751
71 23.228794 24.509907 226.238495 168.972641 -21.987156 67.978409 228.744751
[spine01]
70 -0.361383 -0.195265 0.000000 0.001904 0.001372 18.449547 0.410763
71 -0.361383 -0.195265 0.000000 0.001902 0.001376 18.224112 0.410763
[Bip01_Neck]
70 165.484543 71.581718 0.000119 176.643677 -1.657967 43.431911 180.302734
71 165.484543 71.581718 0.000119 176.643677 -1.657967 43.431911 180.302734
[L_humerus]
70 -13.983130 -135.272980 -120.471481 29.268328 69.054878 141.544205 181.680161
71 -13.983130 -135.272980 -120.471481 32.650902 70.444916 144.712677 181.680161
[R_humerus]
70 -13.983309 -135.273102 125.287651 -169.888397 -68.238594 -95.259895 184.909012
71 -13.983309 -135.273102 125.287651 -170.401154 -67.079361 -94.715385 184.909012
[weapon_bone]
70 235.964890 -300.705902 0.000000 0.000000 -89.951546 -128.212341 382.234833
71 235.964890 -300.705902 0.000000 0.000000 -89.951546 -128.212341 382.234833
[Bip01_Head]
70 201.027542 166.803528 49.228985 78.136925 38.518360 -13.657246 265.817566
71 201.027542 166.803513 49.228977 78.136925 38.518360 -13.657246 265.817566
[eye_left_bone]
70 -24.626970 125.451866 -64.772606 0.000000 -90.000000 -99.840431 143.318359
71 -24.626970 125.451866 -64.772606 0.000000 -90.000000 -99.840431 143.318359
[eye_right_bone]
70 -24.626970 125.451866 64.327362 0.000000 -89.965736 80.156380 143.117676
71 -24.626970 125.451866 64.327362 0.000000 -89.965736 80.156380 143.117676
[L_forearm]
70 322.776093 0.000000 -0.000119 0.000143 -0.002343 -96.996292 322.776093
71 322.776093 0.000000 -0.000119 0.000152 -0.002342 -97.410355 322.776093
[L_front_hand]
70 241.149185 -0.042021 -3.300071 60.145355 -2.204067 -5.138964 241.171753
71 241.149185 -0.042021 -3.300071 60.145355 -2.204067 -5.138964 241.171753
[L_weapon_bone]
70 156.183838 0.000000 0.000000 0.000014 0.000007 0.000001 156.183838
71 156.183838 0.000000 0.000000 0.000014 0.000007 0.000001 156.183838
[L_front_hand01_01]
70 86.095154 20.947098 -0.655860 -0.366594 -0.477154 75.385574 88.609184
71 86.095154 20.947098 -0.655860 -0.366594 -0.477154 75.385574 88.609184
[L_front_hand02_01]
70 86.935165 -11.437475 24.513514 154.399796 -59.883835 -61.369587 91.046425
71 86.935165 -11.437475 24.513514 154.399796 -59.883835 -61.369587 91.046425
[L_front_hand03_01]
70 86.637497 -14.123976 -20.424902 -153.913849 58.118122 -62.702866 90.126129
71 86.637497 -14.123976 -20.424902 -153.913849 58.118130 -62.702866 90.126129
[L_front_hand01_02]
70 71.020905 -0.000179 0.000030 0.000334 -0.002323 -106.379684 71.020905
71 71.020905 -0.000179 0.000030 0.000334 -0.002323 -106.379684 71.020905
[L_front_hand02_02]
70 71.020927 -0.000119 0.000060 0.000334 -0.002323 -106.379684 71.020927
71 71.020927 -0.000119 0.000060 0.000334 -0.002323 -106.379684 71.020927
[L_front_hand03_02]
70 71.020905 -0.000060 0.000060 0.000334 -0.002323 -106.379684 71.020905
71 71.020905 -0.000060 0.000060 0.000334 -0.002323 -106.379684 71.020905
[R_forearm]
70 322.776428 -0.000060 0.000030 0.201601 0.066700 -108.938072 322.776428
71 322.776428 -0.000060 0.000030 0.201625 0.066626 -108.896294 322.776428
[R_front_hand]
70 238.847015 -0.006795 2.210259 -2.635298 -10.645461 -26.312506 238.857239
71 238.847015 -0.006795 2.210259 -2.635298 -10.645461 -26.312506 238.857239
[R_weapon_bone]
70 155.664093 0.002503 -0.000030 0.003487 0.001180 -90.988930 155.664078
71 155.664093 0.002503 -0.000030 0.003487 0.001180 -90.988930 155.664078
[R_front_hand01_01]
70 87.624611 14.231146 22.918642 -154.633484 -59.950619 61.746037 91.683487
71 87.624611 14.231146 22.918642 -154.633514 -59.950634 61.746063 91.683487
[R_front_hand02_01]
70 89.356956 14.367283 -19.491137 154.602661 58.302849 63.744389 92.579636
71 89.356956 14.367283 -19.491137 154.602661 58.302849 63.744389 92.579636
[R_front_hand03_01]
70 87.286232 -22.307278 -0.143439 0.162155 -0.423168 -75.767921 90.091743
71 87.286232 -22.307278 -0.143439 0.162155 -0.423168 -75.767906 90.091743
[R_front_hand01_02]
70 71.020905 0.000060 0.000119 0.002323 -0.000334 106.381714 71.020905
71 71.020905 0.000060 0.000119 0.002323 -0.000334 106.381714 71.020905
[R_front_hand02_02]
70 71.020844 -0.000030 -0.000119 0.002323 -0.000334 106.381714 71.020836
71 71.020844 -0.000030 -0.000119 0.002323 -0.000334 106.381714 71.020836
[R_front_hand03_02]
70 71.020905 0.000000 0.000030 0.002323 -0.000334 106.381714 71.020905
71 71.020905 0.000000 0.000030 0.002323 -0.000334 106.381714 71.020905
[null_rope01_connect]
70 328.732483 0.000000 -0.000238 -18.413208 -24.440548 36.341568 328.732483
71 328.732483 0.000000 -0.000238 -18.283094 -24.436205 36.999794 328.732483
[Rope1_Seg01]
70 -0.000026 -0.000222 0.000047 -26.674429 47.005013 146.674103 0.000229
71 -0.000027 -0.000225 0.000046 -27.496574 47.400097 145.657913 0.000231
[Rope1_Seg02]
70 139.999863 -0.000179 0.000000 -6.301513 19.340746 -14.164925 139.999863
71 139.999863 -0.000179 0.000000 -6.013102 18.678816 -13.732146 139.999863
[Rope1_Seg03]
70 139.999924 0.000060 -0.000060 -42.404438 30.747173 -20.518810 139.999924
71 139.999924 0.000060 -0.000060 -41.250038 30.384377 -20.530077 139.999924
[Rope1_Seg04]
70 139.999924 -0.000060 -0.000119 -79.397430 23.059944 3.441112 139.999924
71 139.999924 -0.000060 -0.000119 -82.736259 24.043148 2.924472 139.999924
[Rope1_Seg05]
70 139.999832 0.000119 -0.000060 -14.902952 1.286604 9.306636 139.999832
71 139.999832 0.000119 -0.000060 -14.345833 0.940000 9.540504 139.999832
[Rope1_Seg06]
70 139.999954 0.000119 -0.000060 -11.160145 0.445764 10.542818 139.999954
71 139.999954 0.000119 -0.000060 -10.321548 0.105014 10.280295 139.999954
[Rope1_Seg07]
70 139.999985 0.000060 0.000000 -9.967904 -2.203200 17.494299 139.999985
71 139.999985 0.000060 0.000000 -9.528617 -2.337284 17.095121 139.999985
[Rope1_Seg09]
70 121.602913 0.000119 -0.000089 -89.793175 -1.359789 0.847147 121.602913
71 121.602913 0.000119 -0.000089 -89.793175 -1.359789 0.847147 121.602913
[L_mid_hand01]
70 103.859421 1.038730 8.195221 130.544373 -67.584534 -38.866943 104.187431
71 103.859421 1.038730 8.195221 130.544373 -67.584534 -38.866943 104.187431
[L_mid_hand02]
70 105.572853 -4.139662 -10.864139 -168.923172 43.409309 -73.498886 106.211075
71 105.572853 -4.139662 -10.864139 -168.923172 43.409309 -73.498886 106.211075
[L_mid_hand03]
70 104.641464 17.579376 -3.913581 -6.012627 17.808174 74.893669 106.179977
71 104.641464 17.579376 -3.913581 -6.012627 17.808174 74.893669 106.179977
[null_rope02_connect]
70 328.732849 0.000179 -0.000119 -163.963074 -0.218588 -44.693600 328.732849
71 328.732849 0.000179 -0.000119 -163.194336 -0.125139 -45.165028 328.732849
[Rope2_Seg01]
70 0.000018 0.000258 0.000000 20.629623 -70.782005 141.237549 0.000258
71 0.000017 0.000259 0.000000 25.673836 -69.624603 135.905579 0.000260
[Rope2_Seg02]
70 139.999741 -0.000060 -0.000119 9.531444 -7.611835 -51.905567 139.999756
71 139.999741 -0.000060 -0.000119 10.417181 -7.931163 -51.666225 139.999756
[Rope2_Seg03]
70 140.000107 0.000030 0.000000 5.176480 -5.585495 -18.308294 140.000107
71 140.000107 0.000030 0.000000 4.700314 -5.503247 -16.443541 140.000107
[Rope2_Seg04]
70 139.999802 0.000000 -0.000060 1.588843 -1.773850 -5.897316 139.999802
71 139.999802 0.000000 -0.000060 1.480209 -1.679121 -5.592142 139.999802
[Rope2_Seg05]
70 139.999985 -0.000060 0.000119 1.208029 -0.680873 -4.750125 139.999985
71 139.999985 -0.000060 0.000119 1.216141 -0.619804 -4.878228 139.999985
[Rope2_Seg06]
70 139.999893 -0.000030 -0.000119 1.681515 -0.478048 -6.121824 139.999893
71 139.999893 -0.000030 -0.000119 1.751054 -0.454991 -6.419032 139.999893
[Rope2_Seg07]
70 139.999893 0.000060 -0.000060 1.776104 -1.064225 -5.510023 139.999893
71 139.999893 0.000060 -0.000060 1.816101 -1.048128 -5.626540 139.999893
[Rope2_Seg09]
70 121.338966 0.000089 -0.000060 33.793236 -1.359788 -0.847141 121.338966
71 121.338966 0.000089 -0.000060 33.793236 -1.359788 -0.847141 121.338966
[R_mid_hand01]
70 104.680779 11.144459 -10.335981 -16.212063 45.237247 70.462852 105.778534
71 104.680779 11.144459 -10.335981 -16.212063 45.237247 70.462852 105.778534
[R_mid_hand02]
70 104.070427 2.443552 8.231699 49.067368 -67.749771 39.286453 104.424065
71 104.070427 2.443552 8.231699 49.067368 -67.749771 39.286453 104.424065
[R_mid_hand03]
70 106.028137 -11.221827 -5.996406 -177.101105 15.551026 -76.585571 106.788818
71 106.028137 -11.221827 -5.996406 -177.101105 15.551026 -76.585571 106.788818
[spine02]
70 129.756927 0.001550 0.000119 0.446875 -4.035358 -14.165189 129.756927
71 129.756927 0.001550 0.000119 0.442468 -4.035876 -14.104430 129.756927
[spine03]
70 78.614151 0.081482 -4.899020 1.949060 3.806632 17.256235 78.766693
71 78.614159 0.081482 -4.899021 1.946558 3.807725 17.218500 78.766701
[pelvis]
70 169.435242 0.051022 0.000000 0.004614 -0.191247 -5.917181 169.435257
71 169.435242 0.051022 0.000000 0.006208 -0.191176 -6.280661 169.435257
[null_rope03_connect]
70 -1.257226 -2.466202 137.391083 -6.046485 -6.700672 96.996559 137.418976
71 -1.257226 -2.466202 137.391083 -6.015402 -6.682364 97.480156 137.418976
[null_rope04_connect]
70 -1.259640 -2.480268 -137.844437 -6.046485 -6.700672 96.996559 137.872513
71 -1.259640 -2.480268 -137.844437 -6.015402 -6.682364 97.480156 137.872513
[Rope3_Seg01]
70 -0.000032 -0.000222 0.000000 44.275112 -49.836632 -105.819214 0.000225
71 -0.000032 -0.000225 0.000000 43.051285 -49.162979 -104.808800 0.000227
[Rope3_Seg02]
70 139.999924 -0.000119 0.000060 5.433846 -4.795952 25.556776 139.999924
71 139.999924 -0.000119 0.000060 5.381802 -5.574082 26.476563 139.999924
[Rope3_Seg03]
70 139.999924 -0.000119 0.000119 -1.677955 -1.786616 34.034634 139.999924
71 139.999924 -0.000119 0.000119 -2.060289 -2.750581 33.125153 139.999924
[Rope3_Seg04]
70 139.999924 0.000119 0.000000 -12.355676 -3.801121 29.313206 139.999924
71 139.999924 0.000119 0.000000 -11.843129 -3.850448 28.779255 139.999924
[Rope3_Seg05]
70 139.999924 -0.000238 0.000060 -10.917793 -5.100144 12.821579 139.999924
71 139.999924 -0.000238 0.000060 -10.790199 -4.808872 13.320872 139.999924
[Rope3_Seg06]
70 139.999893 -0.000119 -0.000060 -4.647579 -2.714019 4.556584 139.999893
71 139.999893 -0.000119 -0.000060 -4.705091 -2.682621 4.727664 139.999893
[Rope3_Seg07]
70 139.999771 0.000060 -0.000119 -2.758871 -1.836126 2.594181 139.999771
71 139.999771 0.000060 -0.000119 -2.822379 -1.832167 2.699061 139.999771
[Rope3_Seg08]
70 139.999985 -0.000060 0.000000 -1.430755 -1.137683 1.453633 139.999985
71 139.999985 -0.000060 0.000000 -1.477591 -1.141257 1.515160 139.999985
[Rope3_Seg09]
70 90.185997 -0.000179 -0.000060 89.793228 -1.359877 -0.847183 90.185997
71 90.185997 -0.000179 -0.000060 89.793228 -1.359877 -0.847183 90.185997
[R_rear_hand01]
70 103.366196 -6.073594 -10.757982 -177.714203 24.565960 -73.910950 104.101845
71 103.366196 -6.073594 -10.757982 -177.714203 24.565960 -73.910950 104.101845
[R_rear_hand02]
70 100.509819 12.039542 -7.992327 -12.874829 36.868488 72.167213 101.543350
71 100.509819 12.039542 -7.992327 -12.874829 36.868488 72.167213 101.543350
[R_rear_hand03]
70 101.539970 5.215704 5.435467 71.484581 -71.816628 21.513813 101.819031
71 101.539970 5.215704 5.435467 71.484581 -71.816628 21.513813 101.819031
[Rope4_Seg01]
70 0.000010 0.000038 -0.000114 -86.303154 62.922791 -78.152435 0.000121
71 0.000010 0.000038 -0.000114 -85.574715 62.720318 -77.333977 0.000121
[Rope4_Seg02]
70 139.999985 0.000060 0.000119 -0.514071 -8.910320 5.277103 139.999985
71 139.999985 0.000060 0.000119 -0.457749 -8.912879 5.317417 139.999985
[Rope4_Seg03]
70 139.999924 0.000000 -0.000238 0.677775 -16.507607 10.011495 139.999924
71 139.999924 0.000000 -0.000238 0.784188 -16.478445 10.091264 139.999924
[Rope4_Seg04]
70 139.999985 0.000000 0.000119 5.753456 -25.079596 23.937124 139.999985
71 139.999985 0.000000 0.000119 5.867968 -24.744709 24.059807 139.999985
[Rope4_Seg05]
70 139.999802 -0.000060 -0.000119 9.117101 -18.389254 12.088328 139.999802
71 139.999802 -0.000060 -0.000119 9.079305 -18.392958 12.068604 139.999802
[Rope4_Seg06]
70 139.999924 0.000000 0.000060 3.897860 -13.258234 -2.025814 139.999924
71 139.999924 0.000000 0.000060 4.131448 -13.577621 -1.920755 139.999924
[Rope4_Seg07]
70 139.999802 0.000000 0.000000 5.448705 -7.540901 1.165686 139.999802
71 139.999802 0.000000 0.000000 5.677751 -7.624939 1.295490 139.999802
[Rope4_Seg08]
70 139.999924 0.000000 0.000119 2.976625 -3.904644 1.589912 139.999924
71 139.999924 0.000000 0.000119 3.093187 -3.913057 1.653419 139.999924
[Rope4_Seg09]
70 90.185791 0.000060 0.000060 -135.617828 2.228885 0.850567 90.185791
71 90.185791 0.000060 0.000060 -135.617828 2.228885 0.850567 90.185791
[L_rear_hand01]
70 101.696655 -8.392275 -7.654577 -12.874829 -36.868488 107.832764 102.329041
71 101.696655 -8.392275 -7.654577 -12.874829 -36.868488 107.832764 102.329041
[L_rear_hand02]
70 102.726799 -1.568258 5.773216 71.484581 71.816628 158.486160 102.900848
71 102.726799 -1.568258 5.773216 71.484581 71.816628 158.486160 102.900848
[L_rear_hand03]
70 104.552910 9.721220 -10.420293 -177.714203 -24.565960 -106.089035 105.519653
71 104.552910 9.721220 -10.420293 -177.714203 -24.565960 -106.089035 105.519653
